<?xml version="1.0" encoding="UTF-8"?>
<svg id="Capa_2" data-name="Capa 2" xmlns="http://www.w3.org/2000/svg" viewBox="0 0 316.78 61.29">
  <defs>
    <style>
      .cls-1 {
        fill: #6da737;
      }

      .cls-2 {
        fill: #003324;
      }

      .cls-3 {
        fill: #f76711;
      }
    </style>
  </defs>
  <g id="Home">
    <g>
      <path class="cls-1" d="M81.55,4.66c.67.71.64,2.57.54,3.51-.98,9.37-7.09,13.85-12.2,21.17-2.26,3.24-4.23,6.72-6.48,9.97-.09.53-.12.56.42.49,2.5-.33,10.9-2.23,12.62-.81,1.34,1.1-.18,5.26-.34,6.91-.12,1.28.27,5.37.05,5.82-.86,1.81-4.56.65-6.4.67-6.21.05-11.56,1.85-17.48,2.44-5.83.58-4.48-1.08-5.96-5.36-.74-2.13-2.53-4.48-1.41-6.7,6.49-8.95,13.67-17.47,20.38-26.28-4.77.27-10.43,3.21-15.01,3.45-2.73.14-3.48-.71-3.56-3.37-.04-1.33.63-11.43.97-11.92.53-.77,8.14-1.23,9.59-1.33,4.5-.28,10.04-.52,14.51-.4,2.07.06,8.39.32,9.75,1.76Z"/>
      <path class="cls-1" d="M102.85,5.83c-1.74,8.38-4.48,18.05-2.61,26.67,1.21,5.6,5.81,5.91,8.62,1.45,4.17-6.62,3.28-20.17,2.41-27.77l11.46-1.07.69,9.03c-.25,11.99-.62,34.11-13.9,38.58-9.21,3.1-15.92-1.42-20.2-9.79-6.24-12.19-4.33-26.76-.94-39.57,4.78,1.04,9.53,2.53,14.48,2.47Z"/>
      <path class="cls-1" d="M33.01,54.16c-.62.62-7.5.52-8.86.43-1.78-.11-6.05-.63-7.65-1.11-.98-.29-2.19-1.34-2.23-2.42-.08-1.99,1.29-7.39,1.74-9.68,2.81-14.12,8.37-26.3,13.12-39.77.35-.59,1.08-1.53,1.78-1.61,1.24-.13,11.57,4.34,12.44,5.41,1.95,2.41-3.35,7.23-4.81,9.3-2.44,3.46-4.75,7.07-6.74,10.81.5,4.66.37,9.4.62,14.06.12,2.28,1.66,13.51.59,14.58Z"/>
      <path class="cls-2" d="M204.12,45.64c-2.59,1.45-4.56,3.46-7.82,3.08-12.64-1.49-10.56-24.87,1.07-26.09,1.73-.18,4.85,1.28,5.18,1.15.48-.2.51-1.53.83-2.1,1.47-2.6,5.86-5.15,8.31-2.39.56.63,2.89,4.34,2.89,5,0,1.1-1.53,1.85-1.62,2.94.4,10.83,3.88,33.7-12.4,34.06-1.72.04-7.95-1.34-8.76-2.79-.62-1.1-.14-4.36.21-5.62,1.29-4.69,4.37-1.03,7.62-1.06s4.27-3.38,4.48-6.18ZM200.8,28.44c-3.32,1.1-3.8,11.5-.69,13.25,2.99,1.68,3.97-4.04,3.93-6.05-.04-2.05-.13-8.24-3.25-7.2Z"/>
      <path class="cls-2" d="M166.8,16.92c.28.49.07,1.71-.08,2.3-2.91,7.19-6.27,14.2-9.34,21.32-1.58,3.67-2.94,8.81-4.74,12.11-.99,1.81-3.47,2.67-5.32,1.76-.52-.26-3.61-5.02-4.18-5.92-5.15-8.11-9.21-16.91-14.42-25-.29-.52-.39-1.04-.11-1.6.12-.25,3.79-3.2,4.25-3.51,1.79-1.21,5.74-3.93,7.71-2.36l8.78,22.72,4.37-23.08c.34-.36.78-.65,1.26-.76,1.21-.27,8.85.88,10.34,1.31.31.09,1.37.53,1.48.71Z"/>
      <path class="cls-2" d="M315.93,13.81c.8.22.87,1.48.85,2.17-.15,5.75-2.29,13.27-3.04,19.22-.4,3.21-.77,6.55-1.01,9.77-.12,1.55.43,7.52-.69,8.46-.92.77-6.34.41-6.99-.24s-.35-4.43-.42-5.36c-2.44.69-4.22,1.69-6.92,1.35-4.26-.53-7.59-6.76-7.91-10.62-.54-6.59,3.72-13.13,10.91-12.25.88.11,2.74,1.21,3.08.64,1.18-1.94-1.71-11.49.83-12.65.12-.05,2.4-.5,2.53-.5,1.87,0,7.43-.37,8.76,0ZM303.2,33.11c-.61-.51-1.84-.65-2.47-.13-1.95,1.62.48,9.48,2.39,9.48,2.42,0,1.8-7.91.07-9.35Z"/>
      <path class="cls-2" d="M227.74,27.94v5.05c2.41.5,8.13-1.15,10.11-.17,1.12.55,1.65,5.64.97,6.71-1.21,1.91-8.27.45-10.41.88-.16,3.71,1.11,8.36.68,11.97-.1.81-.28,1.56-1.1,1.93-.53.24-5.42.66-6.08.52-1.35-.29-1.87-1.74-2.11-2.95-.87-4.38-.7-10.06-1.17-14.66-.47-4.69-1.51-9.41-1.69-14.14-.08-2-.21-2.76,1.69-3.72,5.57-2.81,14.81-2.87,20.98-4.15,1.2.4,1.97,1.3,2.19,2.55s.55,7.1.44,8.36c-.32,3.44-3.36,1.87-5.57,1.82-2.98-.07-5.97.08-8.94.01Z"/>
      <path class="cls-2" d="M273.71,31.59c.37.46,2.64-2.15,3.09-2.45,5.44-3.67,7.79,2.16,9.47,6.38,1.07,2.68,3.62,9.5,3.95,12.1.63,4.96-7.49,6.28-9.57,4.28-2.4-2.3-2.08-12.24-4.15-15.54-.46.44-.94.85-1.34,1.35-3.88,4.82-2.11,8.69-3.14,14.22-.19,1.01-.76,1.85-1.85,1.86-1.51.01-4.96-.89-6.74-1.14-.97-.13-2.59.31-3.22-.53-1.05-1.39,1.49-11.15,1.9-13.52.54-3.16.65-6.92,1.24-10.03.6-3.15,3.99-2.78,6.59-2.44,3.4.44,3.88,2.32,3.79,5.45Z"/>
      <path class="cls-2" d="M173.43,23.34c3.44-.47,7.65.16,9.85,3.11,1.18,1.58,2.46,5.35,1.87,7.26-.95,3.05-8.76,3.22-11.41,4.08-1.25.41.27,3.44.78,4.15.91,1.23,2.66,1.91,4.16,1.84,4.23-.22,7.28-5.35,8.49,2.02.52,3.17-.68,3.56-3.47,4.65-11.54,4.53-20.78.07-21-12.88-.1-6.19,4.26-13.36,10.72-14.24ZM173.17,33.36c2.06.39,4.51-2.06,2.01-3.2-1.99-.91-2.18,1.75-2.01,3.2Z"/>
      <path class="cls-3" d="M243.92,23.76c.31-1.54,2.57-2.64,3.95-3.12,4.07-1.42,13.79-2.39,13.92,3.81.11,4.99-4.74,22.62-7.13,27.23-1.63,3.13-5.02,2.36-6.28-.71-.5-1.22-2.58-9.05-2.09-9.52.12-.12,2.09.28,1.68-1.18-.21-.74-1.58-.34-1.96-.57-.3-.18-.76-1.97-.75-2.47.01-.75.07-.38.51-.52,1.01-.31,3.09-.06,2.51-1.8-.4-1.21-2.75.04-3.68-.2.31-.76-.38-2.04-.34-2.5.1-1.04,6.38-.26,5.73-2.38-.39-1.27-4.95.17-6.06-.17.24-1.75-.32-4.26,0-5.89Z"/>
      <path class="cls-1" d="M3.54,22.14C.81,19.08-.31,10.23.07,6.24c.05-.49.49-2.79.89-2.89,6.23.62,16.13,7.32,17.82,13.48.98,3.59.43,8.23-1.39,11.43-2.44-.54-4.81-1.27-7.11-2.26-1.48-.64-5.79-2.8-6.74-3.87Z"/>
      <path class="cls-2" d="M256.28,16.41c-4.25,3.2-5.23-11.28.56-8.27,2.35,1.22,1.13,7-.56,8.27Z"/>
      <path class="cls-2" d="M247.53,11.51c2.14-.38,5.1,2.75,4.4,5.1-1.19,4.01-7.6-.53-6.42-3.37.26-.63,1.35-1.61,2.02-1.73Z"/>
      <path class="cls-2" d="M258.84,17.43c-1.76-2.09,1.95-5.84,5.08-4.24,4.16,2.13-2.32,7.52-5.08,4.24Z"/>
    </g>
  </g>
</svg>