<?xml version="1.0" encoding="UTF-8"?>
<svg id="Capa_2" data-name="Capa 2" xmlns="http://www.w3.org/2000/svg" viewBox="0 0 483.66 305.61">
  <defs>
    <style>
      .cls-1 {
        fill: #6da737;
      }

      .cls-2 {
        fill: #003324;
      }

      .cls-3 {
        fill: #f76711;
      }
    </style>
  </defs>
  <g id="Home">
    <g>
      <g>
        <path class="cls-1" d="M304.58,14.74c2.12,2.24,2.02,8.12,1.7,11.09-3.11,29.63-22.43,43.82-38.6,66.96-7.15,10.24-13.39,21.24-20.51,31.52-.29,1.68-.37,1.77,1.34,1.55,7.91-1.05,34.49-7.05,39.92-2.57,4.23,3.48-.58,16.64-1.07,21.86-.39,4.05.84,16.97.15,18.42-2.74,5.73-14.43,2.05-20.25,2.1-19.63.17-36.58,5.85-55.29,7.71s-14.17-3.43-18.85-16.97c-2.33-6.74-8.01-14.16-4.46-21.2,20.54-28.32,43.23-55.25,64.46-83.14-15.07.87-32.99,10.16-47.48,10.92-8.62.46-11-2.23-11.27-10.66-.14-4.21,2-36.15,3.07-37.7,1.67-2.42,25.76-3.9,30.35-4.19,14.22-.9,31.77-1.64,45.91-1.26,6.55.17,26.55,1.02,30.86,5.58Z"/>
        <path class="cls-1" d="M371.96,18.43c-5.5,26.5-14.16,57.1-8.26,84.37,3.84,17.73,18.38,18.7,27.26,4.58,13.18-20.94,10.39-63.81,7.64-87.83l36.25-3.37,2.17,28.55c-.78,37.94-1.96,107.9-43.98,122.02-29.14,9.79-50.35-4.48-63.9-30.96-19.74-38.57-13.7-84.65-2.97-125.18,15.12,3.29,30.15,8,45.79,7.81Z"/>
        <path class="cls-1" d="M151.06,171.32c-1.97,1.97-23.73,1.64-28.04,1.36-5.63-.36-19.15-1.98-24.21-3.5-3.09-.93-6.91-4.25-7.04-7.67-.24-6.29,4.07-23.38,5.51-30.63,8.9-44.68,26.47-83.18,41.51-125.79,1.11-1.88,3.41-4.86,5.62-5.08,3.92-.4,36.6,13.73,39.35,17.12,6.18,7.62-10.59,22.88-15.21,29.42-7.73,10.95-15.04,22.35-21.32,34.19,1.58,14.73,1.17,29.72,1.96,44.47.39,7.21,5.24,42.74,1.87,46.11Z"/>
        <path class="cls-1" d="M57.84,70.02c-8.63-9.66-12.18-37.65-10.99-50.27.15-1.54,1.54-8.82,2.82-9.13,19.71,1.96,51.03,23.15,56.37,42.64,3.11,11.35,1.36,26.04-4.39,36.15-7.72-1.7-15.23-4.01-22.49-7.15-4.69-2.03-18.31-8.86-21.33-12.24Z"/>
      </g>
      <g>
        <path class="cls-2" d="M194.34,265.43c-6.64,3.73-11.72,8.89-20.09,7.91-32.46-3.82-27.13-63.86,2.75-67,4.44-.47,12.47,3.29,13.31,2.95,1.24-.51,1.3-3.94,2.13-5.4,3.77-6.68,15.04-13.24,21.35-6.14,1.44,1.62,7.42,11.14,7.43,12.85,0,2.83-3.94,4.76-4.16,7.56,1.03,27.81,9.97,86.54-31.84,87.47-4.43.1-20.41-3.44-22.49-7.16-1.59-2.83-.36-11.18.54-14.44,3.32-12.06,11.21-2.65,19.58-2.72,8.74-.07,10.98-8.67,11.5-15.86ZM185.8,221.26c-8.52,2.83-9.77,29.54-1.76,34.03,7.68,4.31,10.19-10.37,10.1-15.53-.1-5.27-.33-21.16-8.34-18.5Z"/>
        <path class="cls-2" d="M98.5,191.68c.72,1.26.19,4.4-.21,5.91-7.48,18.46-16.11,36.47-23.97,54.75-4.05,9.43-7.54,22.64-12.16,31.09-2.53,4.64-8.91,6.86-13.66,4.53-1.35-.66-9.27-12.9-10.74-15.21-13.23-20.83-23.65-43.43-37.04-64.19-.76-1.33-1-2.67-.27-4.1.32-.63,9.73-8.22,10.91-9.01,4.59-3.1,14.75-10.1,19.8-6.06l22.54,58.34,11.23-59.28c.87-.93,1.99-1.67,3.24-1.95,3.11-.69,22.73,2.27,26.55,3.36.8.23,3.52,1.35,3.79,1.82Z"/>
        <path class="cls-2" d="M481.47,183.7c2.06.58,2.23,3.79,2.18,5.58-.39,14.77-5.87,34.07-7.8,49.36-1.04,8.24-1.97,16.81-2.6,25.08-.3,3.98,1.1,19.31-1.76,21.72-2.36,1.98-16.27,1.06-17.94-.61-1.71-1.71-.89-11.37-1.08-13.76-6.27,1.78-10.83,4.33-17.76,3.47-10.93-1.35-19.49-17.37-20.3-27.27-1.38-16.93,9.55-33.72,28.02-31.47,2.25.27,7.03,3.1,7.91,1.65,3.03-4.98-4.4-29.5,2.13-32.47.3-.14,6.17-1.29,6.5-1.29,4.81,0,19.08-.96,22.5,0ZM448.78,233.26c-1.56-1.3-4.73-1.68-6.34-.34-5.01,4.16,1.25,24.35,6.15,24.34,6.21,0,4.61-20.33.19-24Z"/>
        <path class="cls-2" d="M254.99,219.99v12.98c6.2,1.28,20.88-2.96,25.97-.44,2.86,1.42,4.23,14.49,2.49,17.23-3.1,4.89-21.24,1.15-26.74,2.25-.4,9.52,2.85,21.47,1.75,30.73-.25,2.09-.73,4.01-2.82,4.97-1.37.62-13.91,1.69-15.61,1.32-3.46-.75-4.81-4.48-5.42-7.57-2.23-11.26-1.81-25.84-3-37.66s-3.89-24.16-4.35-36.3c-.2-5.15-.54-7.09,4.35-9.56,14.29-7.22,38.04-7.37,53.89-10.67,3.08,1.04,5.05,3.35,5.63,6.55.57,3.19,1.42,18.24,1.12,21.48-.81,8.83-8.63,4.8-14.3,4.67-7.64-.18-15.33.21-22.97.04Z"/>
        <path class="cls-2" d="M373.04,229.36c.95,1.17,6.78-5.52,7.94-6.3,13.96-9.44,20.01,5.55,24.32,16.38,2.74,6.89,9.29,24.39,10.14,31.06,1.61,12.75-19.24,16.12-24.58,11-6.17-5.92-5.33-31.43-10.66-39.9-1.18,1.13-2.42,2.19-3.45,3.48-9.96,12.37-5.42,22.33-8.07,36.52-.48,2.59-1.94,4.75-4.75,4.77-3.87.03-12.73-2.28-17.31-2.92-2.48-.35-6.66.79-8.28-1.35-2.7-3.56,3.83-28.63,4.87-34.72,1.39-8.11,1.67-17.78,3.17-25.75,1.53-8.08,10.25-7.13,16.93-6.27,8.72,1.13,9.96,5.97,9.73,14Z"/>
        <path class="cls-2" d="M115.51,208.16c8.83-1.21,19.64.41,25.3,8,3.03,4.06,6.32,13.75,4.8,18.65-2.44,7.84-22.5,8.27-29.31,10.49-3.22,1.05.68,8.85,2.01,10.65,2.34,3.16,6.84,4.91,10.69,4.72,10.87-.55,18.71-13.74,21.79,5.2,1.32,8.13-1.75,9.14-8.9,11.95-29.63,11.64-53.37.18-53.93-33.07-.26-15.89,10.94-34.3,27.53-36.57ZM114.86,233.89c5.29,1.01,11.59-5.3,5.17-8.22-5.12-2.33-5.59,4.5-5.17,8.22Z"/>
        <path class="cls-3" d="M296.53,209.23c.79-3.96,6.6-6.79,10.15-8.02,10.45-3.63,35.41-6.14,35.75,9.8.28,12.82-12.18,58.1-18.31,69.92-4.18,8.04-12.9,6.06-16.14-1.82-1.29-3.13-6.62-23.25-5.38-24.44.32-.31,5.36.71,4.31-3.04-.53-1.9-4.05-.87-5.03-1.46-.76-.45-1.95-5.06-1.93-6.34.03-1.92.18-.97,1.32-1.33,2.58-.8,7.93-.16,6.45-4.63-1.03-3.09-7.06.1-9.44-.52.79-1.95-.98-5.25-.87-6.42.24-2.67,16.38-.68,14.71-6.12-1-3.26-12.71.43-15.57-.44.61-4.49-.83-10.95,0-15.14Z"/>
        <path class="cls-2" d="M328.29,190.37c-10.91,8.22-13.44-28.98,1.45-21.24,6.03,3.13,2.89,17.97-1.45,21.24Z"/>
        <path class="cls-2" d="M305.83,177.79c5.5-.98,13.09,7.05,11.3,13.1-3.05,10.29-19.53-1.37-16.5-8.65.67-1.62,3.46-4.14,5.2-4.45Z"/>
        <path class="cls-2" d="M334.87,192.99c-4.51-5.37,5-14.99,13.04-10.89,10.69,5.46-5.96,19.31-13.04,10.89Z"/>
      </g>
    </g>
  </g>
</svg>